# xmcd
#
# Track frame offsets:
#	150
#	22685
#	45947
#	74529
#	97659
#	124003
#	141189
#	165982
#	186295
#
# Disc length: 2835 seconds
#
# Revision: 1
# Processed by: cddbd v1.5.2PL0 Copyright (c) Steve Scherf et al.
# Submitted via: audiograbber 1.83.01
#
DISCID=660b1109
DTITLE=Neil Stacey Group - Leave It To Last [naim]
DYEAR=2003
DGENRE=Easy Listening
TTITLE0=Her Smile
TTITLE1=You'll See
TTITLE2=Summer's Day
TTITLE3=After The Rain
TTITLE4=Better
TTITLE5=Leave It
TTITLE6=Home From Your Heart
TTITLE7=Tonite
TTITLE8=Laku Noc
EXTD=
EXTT0=
EXTT1=
EXTT2=
EXTT3=
EXTT4=
EXTT5=
EXTT6=
EXTT7=
EXTT8=
PLAYORDER=
